# xmcd
#
# Track frame offsets:
#	150
#	30349
#	60466
#	91966
#
# Disc length: 1629 seconds
#
# Revision: 1
# Processed by: cddbd v1.5.2PL0 Copyright (c) Steve Scherf et al.
# Submitted via: audiograbber 1.83.01
#
DISCID=23065b04
DTITLE=Jessie Malakouti - Hard2Beat Promo - Standing Up For The Lonely
DYEAR=2009
DGENRE=Dance
TTITLE0=Standing Up For The Lonely (Out Of Office Remix)
TTITLE1=Standing Up For The Lonely (eSquire Remix)
TTITLE2=Standing Up For The Lonely (Moto Blanco Remix)
TTITLE3=Standing Up For The Lonely (Moto Blanco Dub)
EXTD=
EXTT0=
EXTT1=
EXTT2=
EXTT3=
PLAYORDER=
